<?xml version="1.0" encoding="UTF-8"?>
<svg version="1.1" xmlns="http://www.w3.org/2000/svg" width="134" height="75">
<path d="M0 0 C-0.00222061 0.58437836 -0.00444122 1.16875671 -0.00672913 1.77084351 C-0.02880388 7.83745718 -0.0439158 13.90405949 -0.05493164 19.97070312 C-0.05996926 22.23665836 -0.06679952 24.50261033 -0.07543945 26.76855469 C-0.08752996 30.02019047 -0.09323392 33.27178339 -0.09765625 36.5234375 C-0.10281754 37.54118256 -0.10797882 38.55892761 -0.11329651 39.60751343 C-0.11337204 40.54833771 -0.11344757 41.48916199 -0.11352539 42.45849609 C-0.115746 43.28900482 -0.11796661 44.11951355 -0.12025452 44.97518921 C-0.12909182 47.06964964 -0.12909182 47.06964964 1 49 C3.30965848 50.05352843 5.6429774 51.05719096 8 52 C7.505 52.99 7.505 52.99 7 54 C2.45761452 53.91890198 -2.08345039 53.80607248 -6.625 53.6875 C-7.91019531 53.66494141 -9.19539063 53.64238281 -10.51953125 53.61914062 C-11.76347656 53.58369141 -13.00742188 53.54824219 -14.2890625 53.51171875 C-15.43068848 53.48553467 -16.57231445 53.45935059 -17.74853516 53.43237305 C-23.5295965 52.66361951 -27.28231035 50.18853053 -31 45.8125 C-31.680625 45.02359375 -32.36125 44.2346875 -33.0625 43.421875 C-34.84006753 41.19991559 -36.41497221 38.92281312 -38 36.5625 C-40.17770087 33.53657862 -41.74843638 32.4098221 -45.375 31.5 C-46.57125 31.335 -47.7675 31.17 -49 31 C-48.85941524 33.45873768 -48.71277001 35.91685175 -48.5625 38.375 C-48.50352539 39.42300781 -48.50352539 39.42300781 -48.44335938 40.4921875 C-48.25719866 44.37360492 -48.25719866 44.37360492 -47 48 C-44.98330173 49.13350534 -44.98330173 49.13350534 -43 50 C-43 50.33 -43 50.66 -43 51 C-48.94 51 -54.88 51 -61 51 C-61 50.34 -61 49.68 -61 49 C-60.01 48.34 -59.02 47.68 -58 47 C-57.09791877 44.2937563 -56.87772401 42.76149014 -56.88647461 39.98754883 C-56.88655014 39.18694534 -56.88662567 38.38634186 -56.88670349 37.56147766 C-56.89186478 36.70201035 -56.89702606 35.84254303 -56.90234375 34.95703125 C-56.90446617 33.63163582 -56.90446617 33.63163582 -56.90663147 32.27946472 C-56.91222931 29.45710872 -56.92478139 26.63483203 -56.9375 23.8125 C-56.94251528 21.89908969 -56.94707814 19.98567813 -56.95117188 18.07226562 C-56.96219803 13.38147986 -56.97946117 8.69075337 -57 4 C-58.32 3.67 -59.64 3.34 -61 3 C-61 2.34 -61 1.68 -61 1 C-53.74 1 -46.48 1 -39 1 C-38.67 1.66 -38.34 2.32 -38 3 C-38.54269531 3.268125 -39.08539063 3.53625 -39.64453125 3.8125 C-44.3991005 6.4168046 -46.97882149 8.47346884 -48.546875 13.73046875 C-49.35819525 17.79406413 -49.75438849 21.86695109 -50 26 C-47.78809522 25.43035877 -45.58058613 24.84363602 -43.375 24.25 C-41.53035156 23.76273438 -41.53035156 23.76273438 -39.6484375 23.265625 C-34.22759006 21.38515972 -30.12929357 18.86779 -27 14 C-26 15 -26 15 -25.6875 17.6875 C-26.07885869 21.83590212 -27.38045638 23.79833557 -30 27 C-32.140625 28.171875 -32.140625 28.171875 -34 29 C-32.46847957 31.23674624 -30.92548516 33.46395323 -29.375 35.6875 C-28.73498047 36.62625977 -28.73498047 36.62625977 -28.08203125 37.58398438 C-24.71397641 42.38471926 -21.12178892 46.95940369 -15.375 48.875 C-12.69831178 49.13225417 -12.69831178 49.13225417 -9 48 C-8.34 35.13 -7.68 22.26 -7 9 C-10.3 9.99 -13.6 10.98 -17 12 C-15.75714735 7.02858939 -14.38343867 6.48979067 -10.1875 3.75 C-9.12917969 3.04359375 -8.07085937 2.3371875 -6.98046875 1.609375 C-4 0 -4 0 0 0 Z " fill="#6D181B" transform="translate(90,0)"/>
<path d="M0 0 C3.63810324 2.94144517 4.7507747 4.85060978 5.9375 9.375 C6.61480976 17.96527016 1.98976463 25.79660306 -2.6328125 32.73046875 C-3.10460937 33.27316406 -3.57640625 33.81585938 -4.0625 34.375 C-4.7225 34.375 -5.3825 34.375 -6.0625 34.375 C-6.31773438 34.96796875 -6.57296875 35.5609375 -6.8359375 36.171875 C-8.18066498 38.58724538 -9.55464367 39.88711706 -11.6875 41.625 C-12.63496094 42.40617187 -12.63496094 42.40617187 -13.6015625 43.203125 C-14.08367187 43.58984375 -14.56578125 43.9765625 -15.0625 44.375 C-13.02113605 44.42951714 -10.97934144 44.46802485 -8.9375 44.5 C-7.80054687 44.52320313 -6.66359375 44.54640625 -5.4921875 44.5703125 C-1.95881985 44.36909566 0.69747267 43.78536484 3.9375 42.375 C5.37673199 39.86504504 5.37673199 39.86504504 5.9375 37.375 C6.2675 37.375 6.5975 37.375 6.9375 37.375 C7.23537234 46.16223404 7.23537234 46.16223404 4.9375 50.375 C1.99133462 51.84808269 -0.54012594 51.37794692 -3.8203125 51.25390625 C-4.81488968 51.21848976 -4.81488968 51.21848976 -5.82955933 51.18235779 C-7.94909129 51.10573184 -10.06825685 51.02170357 -12.1875 50.9375 C-13.62367994 50.88427819 -15.0598778 50.8315378 -16.49609375 50.77929688 C-20.01845436 50.65011856 -23.54052352 50.5142997 -27.0625 50.375 C-25.37662668 47.4488056 -23.7476404 44.81721004 -21.390625 42.39453125 C-20.64594971 41.61529297 -20.64594971 41.61529297 -19.88623047 40.8203125 C-19.36689941 40.28148437 -18.84756836 39.74265625 -18.3125 39.1875 C-7.60099299 28.0752901 -7.60099299 28.0752901 -2.75 13.875 C-3.08589828 10.11293927 -3.77591954 8.33908578 -6.0625 5.375 C-9.75736103 2.91175931 -11.69543092 2.98508312 -16.0625 3.375 C-19.40366896 5.44882901 -20.00919413 8.72894121 -21.0625 12.375 C-23.0625 11.375 -23.0625 11.375 -24.0625 8.375 C-24.2920082 1.83401639 -24.2920082 1.83401639 -23.0625 -0.625 C-15.89220492 -3.65245792 -7.03519284 -3.46531792 0 0 Z " fill="#76191E" transform="translate(127.0625,2.625)"/>
<path d="M0 0 C-0.33 3.3 -0.66 6.6 -1 10 C-1.66 10 -2.32 10 -3 10 C-3.598125 9.030625 -4.19625 8.06125 -4.8125 7.0625 C-6.67844894 3.8677818 -6.67844894 3.8677818 -9.5 3 C-12.45240038 3 -13.73896278 3.0619681 -16 5 C-17.17761741 8.32416555 -17.17761741 8.32416555 -17 12 C-15.1687189 14.81099414 -15.1687189 14.81099414 -13 17 C-13 17.66 -13 18.32 -13 19 C-12.42507813 19.25652344 -11.85015625 19.51304688 -11.2578125 19.77734375 C-6.48194134 22.3635854 -2.24762889 26.33107959 0.06640625 31.28125 C1.17298245 35.34565568 1.0844297 37.69704638 -0.0625 41.8125 C-2.99336445 46.63424474 -6.53960908 49.51080248 -12 51 C-16.80916475 51.4144343 -20.78863031 51.61713127 -25 49 C-26.24200301 46.51599398 -25.98221651 45.17792364 -25.6875 42.4375 C-25.60886719 41.63183594 -25.53023437 40.82617188 -25.44921875 39.99609375 C-25.30097656 39.33738281 -25.15273438 38.67867187 -25 38 C-24.01 37.505 -24.01 37.505 -23 37 C-22.7525 38.11375 -22.505 39.2275 -22.25 40.375 C-21.35498229 43.93116367 -21.35498229 43.93116367 -19.3125 45.5 C-15.97953135 46.22064187 -13.30992808 45.72216613 -10 45 C-6.99741594 43.35659986 -6.99741594 43.35659986 -6.125 41.25 C-5.80600454 35.50808174 -10.41017119 31.01718939 -14 27 C-15.2375 25.7625 -15.2375 25.7625 -16.5 24.5 C-24.80487805 16.19512195 -24.80487805 16.19512195 -25.25 11.1875 C-24.95434044 7.41784063 -24.43689566 5.89381359 -22 3 C-16.21200525 -1.45341952 -6.73058179 -3.36529089 0 0 Z " fill="#6F181B" transform="translate(26,1)"/>
<path d="M0 0 C6.75 5.75 6.75 5.75 9 8 C9.33 6.02 9.66 4.04 10 2 C9.34 1.67 8.68 1.34 8 1 C9.65 1 11.3 1 13 1 C12.67 5.29 12.34 9.58 12 14 C8.09567131 12.04783565 5.96160056 10.12613393 3 7 C2.67 8.98 2.34 10.96 2 13 C2.66 13.33 3.32 13.66 4 14 C2.35 14 0.7 14 -1 14 C-0.67 9.38 -0.34 4.76 0 0 Z " fill="#4F1312" transform="translate(44,61)"/>
<path d="M0 0 C6.15234375 -0.09765625 6.15234375 -0.09765625 8 0 C8.33 0.33 8.66 0.66 9 1 C8.938125 2.258125 8.87625 3.51625 8.8125 4.8125 C8.74631202 8.16401874 8.79772472 8.7471559 11 11.5 C11.66 11.995 12.32 12.49 13 13 C10.8125 13.3125 10.8125 13.3125 8 13 C5.1875 10.5 5.1875 10.5 3 8 C3.66 9.65 4.32 11.3 5 13 C3.35 13 1.7 13 0 13 C0 8.71 0 4.42 0 0 Z M3 1 C3 2.65 3 4.3 3 6 C3.99 6 4.98 6 6 6 C5.67 4.35 5.34 2.7 5 1 C4.34 1 3.68 1 3 1 Z " fill="#77191E" transform="translate(109,62)"/>
<path d="M0 0 C1.98 0 3.96 0 6 0 C5.01 0.495 5.01 0.495 4 1 C4.33 1.66 4.66 2.32 5 3 C5.4125 2.484375 5.825 1.96875 6.25 1.4375 C6.8275 0.963125 7.405 0.48875 8 0 C10.1875 0.3125 10.1875 0.3125 12 1 C10.35 2.65 8.7 4.3 7 6 C7.75796875 6.63228516 7.75796875 6.63228516 8.53125 7.27734375 C9.1809375 7.82519531 9.830625 8.37304688 10.5 8.9375 C11.47453125 9.75541016 11.47453125 9.75541016 12.46875 10.58984375 C12.9740625 11.05519531 13.479375 11.52054688 14 12 C14 12.33 14 12.66 14 13 C11.75 13.25 11.75 13.25 9 13 C6.6875 11 6.6875 11 5 9 C4.67 9.99 4.34 10.98 4 12 C4.66 12.33 5.32 12.66 6 13 C4.35 13 2.7 13 1 13 C1.33 9.04 1.66 5.08 2 1 C1.34 0.67 0.68 0.34 0 0 Z " fill="#5D1515" transform="translate(13,62)"/>
<path d="M0 0 C0.66 0.33 1.32 0.66 2 1 C2 2.32 2 3.64 2 5 C1.34 5 0.68 5 0 5 C-0.33 4.34 -0.66 3.68 -1 3 C-2.98 3 -4.96 3 -7 3 C-7.37233882 7.18868414 -7.37233882 7.18868414 -5.6875 10.875 C-3.92199528 12.2773501 -3.92199528 12.2773501 -1 12 C-0.67 11.34 -0.34 10.68 0 10 C0.66 10 1.32 10 2 10 C2 11.32 2 12.64 2 14 C0.56344146 14.08131463 -0.8744483 14.13933559 -2.3125 14.1875 C-3.51326172 14.23970703 -3.51326172 14.23970703 -4.73828125 14.29296875 C-7.52111393 13.9324982 -8.31047214 13.19167856 -10 11 C-10.875 8.625 -10.875 8.625 -11 6 C-8.2655793 0.27073757 -6.16828479 -0.25701187 0 0 Z " fill="#5F1617" transform="translate(84,61)"/>
<path d="M0 0 C2.87423233 2.4178779 3.64387252 4.52398029 4.5625 8.125 C5.19912622 10.75347331 5.19912622 10.75347331 6 13 C6.66 13.33 7.32 13.66 8 14 C6.35 14 4.7 14 3 14 C2.67 12.35 2.34 10.7 2 9 C1.01 9 0.02 9 -1 9 C-1 10.65 -1 12.3 -1 14 C-2.65 14 -4.3 14 -6 14 C-5.34 13.67 -4.68 13.34 -4 13 C-3.12359346 10.75768225 -3.12359346 10.75768225 -2.4375 8.125 C-2.18871094 7.24070312 -1.93992187 6.35640625 -1.68359375 5.4453125 C-1.45800781 4.63835937 -1.23242188 3.83140625 -1 3 C-0.67 2.01 -0.34 1.02 0 0 Z M0 6 C1 8 1 8 1 8 Z " fill="#641617" transform="translate(96,61)"/>
<path d="M0 0 C0.33 1.32 0.66 2.64 1 4 C-0.32 3.34 -1.64 2.68 -3 2 C-3 3.32 -3 4.64 -3 6 C-1.68 6 -0.36 6 1 6 C1 6.99 1 7.98 1 9 C-0.32 8.67 -1.64 8.34 -3 8 C-2.34 9.32 -1.68 10.64 -1 12 C-0.34 11.67 0.32 11.34 1 11 C1 11.99 1 12.98 1 14 C-1.64 14 -4.28 14 -7 14 C-6.67 13.01 -6.34 12.02 -6 11 C-5.5982661 5.85056722 -5.5982661 5.85056722 -7 1 C-3.535 0.505 -3.535 0.505 0 0 Z " fill="#70181B" transform="translate(133,61)"/>
<path d="M0 0 C-0.99 1.485 -0.99 1.485 -2 3 C-2 2.34 -2 1.68 -2 1 C-2.99 1 -3.98 1 -5 1 C-5 1.99 -5 2.98 -5 4 C-4.360625 4.226875 -3.72125 4.45375 -3.0625 4.6875 C-1 6 -1 6 -0.1875 8.5 C0 11 0 11 -1 13 C-2.98 13 -4.96 13 -7 13 C-6.67 11.68 -6.34 10.36 -6 9 C-6 9.99 -6 10.98 -6 12 C-5.01 12 -4.02 12 -3 12 C-3.33 10.35 -3.66 8.7 -4 7 C-4.66 7 -5.32 7 -6 7 C-6.33 4.69 -6.66 2.38 -7 0 C-4.3333581 -1.33332095 -2.83319697 -0.67102033 0 0 Z " fill="#84181C" transform="translate(7,62)"/>
<path d="M0 0 C-1.21703505 3.65110514 -2.1344414 3.88327045 -5.375 5.75 C-9.95752556 8.64959487 -11.45676207 10.85587358 -13 16 C-13.66 16 -14.32 16 -15 16 C-14.521575 10.97653748 -13.22014577 7.89807119 -10 4 C-6.80869904 1.64468904 -4.06421416 0 0 0 Z " fill="#531210" transform="translate(58,5)"/>
<path d="M0 0 C1.65 0 3.3 0 5 0 C5 4.29 5 8.58 5 13 C3.35 13 1.7 13 0 13 C0 8.71 0 4.42 0 0 Z " fill="#6C181C" transform="translate(31,62)"/>
<path d="M0 0 C1.65 0 3.3 0 5 0 C4.67 4.29 4.34 8.58 4 13 C2.68 12.34 1.36 11.68 0 11 C0 9.68 0 8.36 0 7 C0.33 7 0.66 7 1 7 C1.33 5.02 1.66 3.04 2 1 C1.34 0.67 0.68 0.34 0 0 Z " fill="#8A1C24" transform="translate(52,62)"/>
<path d="M0 0 C0.99 0 1.98 0 3 0 C3 1.98 3 3.96 3 6 C3.99 6.33 4.98 6.66 6 7 C5.01 7.33 4.02 7.66 3 8 C3.66 9.65 4.32 11.3 5 13 C3.35 13 1.7 13 0 13 C0 8.71 0 4.42 0 0 Z " fill="#571312" transform="translate(109,62)"/>
<path d="M0 0 C-0.99 1.485 -0.99 1.485 -2 3 C-2 2.34 -2 1.68 -2 1 C-2.99 1 -3.98 1 -5 1 C-4.67 2.98 -4.34 4.96 -4 7 C-4.66 7 -5.32 7 -6 7 C-6.33 4.69 -6.66 2.38 -7 0 C-4.3333581 -1.33332095 -2.83319697 -0.67102033 0 0 Z " fill="#6D141B" transform="translate(7,62)"/>
<path d="M0 0 C0.66 0 1.32 0 2 0 C2.28875 1.134375 2.5775 2.26875 2.875 3.4375 C3.24625 4.613125 3.6175 5.78875 4 7 C4.66 7.33 5.32 7.66 6 8 C4.35 8 2.7 8 1 8 C0.67 5.36 0.34 2.72 0 0 Z " fill="#841A21" transform="translate(98,67)"/>
<path d="M0 0 C-1.4638611 4.39158329 -3.97831338 4.87947433 -8 7 C-7.75 4.625 -7.75 4.625 -7 2 C-4.43689172 0.2058242 -3.16880694 0 0 0 Z " fill="#812228" transform="translate(58,5)"/>
<path d="M0 0 C1.98 1.65 3.96 3.3 6 5 C5.67 5.99 5.34 6.98 5 8 C2.5 6.25 2.5 6.25 0 4 C0 2.68 0 1.36 0 0 Z " fill="#6B161A" transform="translate(46,63)"/>
<path d="M0 0 C5.75 -0.125 5.75 -0.125 8 1 C8 2.32 8 3.64 8 5 C7.34 5 6.68 5 6 5 C5.67 4.34 5.34 3.68 5 3 C3.35 3 1.7 3 0 3 C0 2.01 0 1.02 0 0 Z " fill="#8F191F" transform="translate(78,61)"/>
<path d="M0 0 C3.79588866 0.54226981 5.47211993 2.20127563 8 5 C3.48279689 5.36625971 3.48279689 5.36625971 1.1875 3.625 C0 2 0 2 0 0 Z " fill="#7D1A20" transform="translate(19,70)"/>
</svg>
